<svg xmlns="http://www.w3.org/2000/svg" viewBox="0 0 960 470" font-family="'JetBrains Mono','SFMono-Regular',Consolas,monospace">
<defs><marker id="arr" viewBox="0 0 10 10" refX="9" refY="5" markerWidth="7" markerHeight="7" orient="auto-start-reverse"><path d="M0,0 L10,5 L0,10 z" fill="#00c8ff"/></marker></defs>
<rect width="960" height="470" fill="#0b0f19"/>
<text x="480.0" y="32" font-size="17" fill="#d0dce8" text-anchor="middle" font-weight="bold">ZeRO's key move: split the all-reduce open, update in the middle</text>
<text x="480.0" y="54" font-size="11.5" fill="#7a8899" text-anchor="middle" font-weight="normal">post #1: all-reduce = reduce-scatter + all-gather &#183; after RS, rank k already owns the FULL sum of shard k</text>
<text x="80" y="100" font-size="13" fill="#e66767" text-anchor="start" font-weight="bold">DDP</text>
<rect x="200" y="74" width="130" height="40" rx="6" fill="#0099c4" opacity="0.9"/>
<text x="265" y="98" font-size="11" fill="#0b0f19" text-anchor="middle" font-weight="bold">backward</text>
<line x1="334" y1="94" x2="364" y2="94" stroke="#00c8ff" stroke-width="4.800000000000001" opacity="0.22" stroke-linecap="round"/>
<line x1="334" y1="94" x2="364" y2="94" stroke="#00c8ff" stroke-width="1.6" marker-end="url(#arr)"/>
<rect x="368" y="74" width="190" height="40" rx="6" fill="#9085e9" opacity="0.9"/>
<text x="463" y="98" font-size="10" fill="#0b0f19" text-anchor="middle" font-weight="bold">all-reduce(g)  2(N-1)/N&#183;S</text>
<line x1="562" y1="94" x2="592" y2="94" stroke="#00c8ff" stroke-width="4.800000000000001" opacity="0.22" stroke-linecap="round"/>
<line x1="562" y1="94" x2="592" y2="94" stroke="#00c8ff" stroke-width="1.6" marker-end="url(#arr)"/>
<rect x="596" y="74" width="240" height="40" rx="6" fill="none" stroke="#e66767" stroke-width="1.6"/>
<text x="716" y="91" font-size="10.5" fill="#e66767" text-anchor="middle" font-weight="bold">every rank updates ALL &#952;</text>
<text x="716" y="106" font-size="9" fill="#7a8899" text-anchor="middle" font-weight="normal">&#8594; full fp32 state on every rank</text>
<text x="80" y="198" font-size="13" fill="#199e70" text-anchor="start" font-weight="bold">ZeRO-1</text>
<rect x="200" y="172" width="130" height="40" rx="6" fill="#0099c4" opacity="0.9"/>
<text x="265" y="196" font-size="11" fill="#0b0f19" text-anchor="middle" font-weight="bold">backward</text>
<line x1="334" y1="192" x2="364" y2="192" stroke="#00c8ff" stroke-width="4.800000000000001" opacity="0.22" stroke-linecap="round"/>
<line x1="334" y1="192" x2="364" y2="192" stroke="#00c8ff" stroke-width="1.6" marker-end="url(#arr)"/>
<rect x="368" y="172" width="150" height="40" rx="6" fill="#9085e9" opacity="0.9"/>
<text x="443" y="196" font-size="10.5" fill="#0b0f19" text-anchor="middle" font-weight="bold">reduce-scatter</text>
<line x1="522" y1="192" x2="552" y2="192" stroke="#00c8ff" stroke-width="4.800000000000001" opacity="0.22" stroke-linecap="round"/>
<line x1="522" y1="192" x2="552" y2="192" stroke="#00c8ff" stroke-width="1.6" marker-end="url(#arr)"/>
<rect x="556" y="172" width="180" height="40" rx="6" fill="#199e70" opacity="0.95"/>
<text x="646" y="189" font-size="10" fill="#0b0f19" text-anchor="middle" font-weight="bold">LOCAL update of shard k</text>
<text x="646" y="203" font-size="9" fill="#0b0f19" text-anchor="middle" font-weight="normal">only 1/N of fp32 state</text>
<line x1="740" y1="192" x2="770" y2="192" stroke="#00c8ff" stroke-width="4.800000000000001" opacity="0.22" stroke-linecap="round"/>
<line x1="740" y1="192" x2="770" y2="192" stroke="#00c8ff" stroke-width="1.6" marker-end="url(#arr)"/>
<rect x="774" y="172" width="150" height="40" rx="6" fill="#9085e9" opacity="0.9"/>
<text x="849" y="196" font-size="10.5" fill="#0b0f19" text-anchor="middle" font-weight="bold">all-gather(&#952;')</text>
<rect x="120" y="264" width="720" height="66" rx="8" fill="#131c2e" stroke="rgba(0,200,255,0.25)"/>
<text x="480" y="288" font-size="11.5" fill="#d0dce8" text-anchor="middle" font-weight="normal">same collectives, rearranged:  RS + AG = all-reduce  &#8594;  communication volume unchanged (2(N-1)/N &#183; S)</text>
<text x="480" y="310" font-size="12" fill="#00c8ff" text-anchor="middle" font-weight="bold">but each rank now stores only 1/N of the optimizer state  &#8594;  12&#936; becomes 12&#936;/N</text>
<text x="140" y="394" font-size="11" fill="#7a8899" text-anchor="end" font-weight="normal">who updates what:</text>
<rect x="160" y="370" width="180" height="38" rx="6" fill="#131c2e" stroke="rgba(0,200,255,0.3)"/>
<text x="172" y="394" font-size="11" fill="#7a8899" text-anchor="start" font-weight="normal">G0</text>
<rect x="204 " y="379" width="26" height="20" rx="3" fill="#c98500" opacity="0.95"/>
<rect x="236 " y="379" width="26" height="20" rx="3" fill="#c98500" opacity="0.18"/>
<rect x="268 " y="379" width="26" height="20" rx="3" fill="#c98500" opacity="0.18"/>
<rect x="300 " y="379" width="26" height="20" rx="3" fill="#c98500" opacity="0.18"/>
<rect x="350" y="370" width="180" height="38" rx="6" fill="#131c2e" stroke="rgba(0,200,255,0.3)"/>
<text x="362" y="394" font-size="11" fill="#7a8899" text-anchor="start" font-weight="normal">G1</text>
<rect x="394 " y="379" width="26" height="20" rx="3" fill="#c98500" opacity="0.18"/>
<rect x="426 " y="379" width="26" height="20" rx="3" fill="#c98500" opacity="0.95"/>
<rect x="458 " y="379" width="26" height="20" rx="3" fill="#c98500" opacity="0.18"/>
<rect x="490 " y="379" width="26" height="20" rx="3" fill="#c98500" opacity="0.18"/>
<rect x="540" y="370" width="180" height="38" rx="6" fill="#131c2e" stroke="rgba(0,200,255,0.3)"/>
<text x="552" y="394" font-size="11" fill="#7a8899" text-anchor="start" font-weight="normal">G2</text>
<rect x="584 " y="379" width="26" height="20" rx="3" fill="#c98500" opacity="0.18"/>
<rect x="616 " y="379" width="26" height="20" rx="3" fill="#c98500" opacity="0.18"/>
<rect x="648 " y="379" width="26" height="20" rx="3" fill="#c98500" opacity="0.95"/>
<rect x="680 " y="379" width="26" height="20" rx="3" fill="#c98500" opacity="0.18"/>
<rect x="730" y="370" width="180" height="38" rx="6" fill="#131c2e" stroke="rgba(0,200,255,0.3)"/>
<text x="742" y="394" font-size="11" fill="#7a8899" text-anchor="start" font-weight="normal">G3</text>
<rect x="774 " y="379" width="26" height="20" rx="3" fill="#c98500" opacity="0.18"/>
<rect x="806 " y="379" width="26" height="20" rx="3" fill="#c98500" opacity="0.18"/>
<rect x="838 " y="379" width="26" height="20" rx="3" fill="#c98500" opacity="0.18"/>
<rect x="870 " y="379" width="26" height="20" rx="3" fill="#c98500" opacity="0.95"/>
<text x="480" y="432" font-size="10" fill="#7a8899" text-anchor="middle" font-weight="normal">bright = the optimizer-state shard this rank owns, stores, and updates &#183; dim = never materialized here</text>
</svg>
