<svg xmlns="http://www.w3.org/2000/svg" viewBox="0 0 960 500" font-family="'JetBrains Mono','SFMono-Regular',Consolas,monospace">
<defs><marker id="arr" viewBox="0 0 10 10" refX="9" refY="5" markerWidth="7" markerHeight="7" orient="auto-start-reverse"><path d="M0,0 L10,5 L0,10 z" fill="#00c8ff"/></marker></defs>
<rect width="960" height="500" fill="#0b0f19"/>
<text x="480.0" y="32" font-size="17" fill="#d0dce8" text-anchor="middle" font-weight="bold">One step of data parallelism (N = 4)</text>
<text x="480.0" y="54" font-size="11.5" fill="#7a8899" text-anchor="middle" font-weight="normal">replicas start identical &#183; see different data &#183; one all-reduce makes them identical again</text>
<rect x="40" y="80" width="190" height="320" rx="10" fill="#131c2e" stroke="rgba(0,200,255,0.35)" stroke-width="1.3"/>
<text x="52" y="102" font-size="11" fill="#7a8899" text-anchor="start" font-weight="normal">GPU 0</text>
<rect x="64" y="118" width="142" height="26" rx="4" fill="#0099c4" opacity="0.9"/>
<text x="135.0" y="135" font-size="10.5" fill="#0b0f19" text-anchor="middle" font-weight="bold">batch shard 0</text>
<line x1="135.0" y1="152" x2="135.0" y2="172" stroke="#00c8ff" stroke-width="4.800000000000001" opacity="0.22" stroke-linecap="round"/>
<line x1="135.0" y1="152" x2="135.0" y2="172" stroke="#00c8ff" stroke-width="1.6" marker-end="url(#arr)"/>
<rect x="64" y="176" width="142" height="46" rx="6" fill="none" stroke="#0099c4" stroke-width="1.6"/>
<text x="135.0" y="196" font-size="11" fill="#d0dce8" text-anchor="middle" font-weight="normal">model replica</text>
<text x="135.0" y="212" font-size="9.5" fill="#7a8899" text-anchor="middle" font-weight="normal">(identical &#952;)</text>
<line x1="135.0" y1="230" x2="135.0" y2="250" stroke="#00c8ff" stroke-width="4.800000000000001" opacity="0.22" stroke-linecap="round"/>
<line x1="135.0" y1="230" x2="135.0" y2="250" stroke="#00c8ff" stroke-width="1.6" marker-end="url(#arr)"/>
<rect x="64" y="254" width="142" height="30" rx="4" fill="#9085e9" opacity="0.85"/>
<text x="135.0" y="273" font-size="10.5" fill="#0b0f19" text-anchor="middle" font-weight="bold">local grad g0</text>
<text x="135.0" y="306" font-size="9" fill="#7a8899" text-anchor="middle" font-weight="normal">forward + backward</text>
<text x="135.0" y="320" font-size="9" fill="#7a8899" text-anchor="middle" font-weight="normal">(no communication)</text>
<line x1="135.0" y1="330" x2="135.0" y2="352" stroke="#00c8ff" stroke-width="4.800000000000001" opacity="0.22" stroke-linecap="round"/>
<line x1="135.0" y1="330" x2="135.0" y2="352" stroke="#00c8ff" stroke-width="1.6" marker-end="url(#arr)"/>
<rect x="270" y="80" width="190" height="320" rx="10" fill="#131c2e" stroke="rgba(0,200,255,0.35)" stroke-width="1.3"/>
<text x="282" y="102" font-size="11" fill="#7a8899" text-anchor="start" font-weight="normal">GPU 1</text>
<rect x="294" y="118" width="142" height="26" rx="4" fill="#e66767" opacity="0.9"/>
<text x="365.0" y="135" font-size="10.5" fill="#0b0f19" text-anchor="middle" font-weight="bold">batch shard 1</text>
<line x1="365.0" y1="152" x2="365.0" y2="172" stroke="#00c8ff" stroke-width="4.800000000000001" opacity="0.22" stroke-linecap="round"/>
<line x1="365.0" y1="152" x2="365.0" y2="172" stroke="#00c8ff" stroke-width="1.6" marker-end="url(#arr)"/>
<rect x="294" y="176" width="142" height="46" rx="6" fill="none" stroke="#0099c4" stroke-width="1.6"/>
<text x="365.0" y="196" font-size="11" fill="#d0dce8" text-anchor="middle" font-weight="normal">model replica</text>
<text x="365.0" y="212" font-size="9.5" fill="#7a8899" text-anchor="middle" font-weight="normal">(identical &#952;)</text>
<line x1="365.0" y1="230" x2="365.0" y2="250" stroke="#00c8ff" stroke-width="4.800000000000001" opacity="0.22" stroke-linecap="round"/>
<line x1="365.0" y1="230" x2="365.0" y2="250" stroke="#00c8ff" stroke-width="1.6" marker-end="url(#arr)"/>
<rect x="294" y="254" width="142" height="30" rx="4" fill="#9085e9" opacity="0.85"/>
<text x="365.0" y="273" font-size="10.5" fill="#0b0f19" text-anchor="middle" font-weight="bold">local grad g1</text>
<text x="365.0" y="306" font-size="9" fill="#7a8899" text-anchor="middle" font-weight="normal">forward + backward</text>
<text x="365.0" y="320" font-size="9" fill="#7a8899" text-anchor="middle" font-weight="normal">(no communication)</text>
<line x1="365.0" y1="330" x2="365.0" y2="352" stroke="#00c8ff" stroke-width="4.800000000000001" opacity="0.22" stroke-linecap="round"/>
<line x1="365.0" y1="330" x2="365.0" y2="352" stroke="#00c8ff" stroke-width="1.6" marker-end="url(#arr)"/>
<rect x="500" y="80" width="190" height="320" rx="10" fill="#131c2e" stroke="rgba(0,200,255,0.35)" stroke-width="1.3"/>
<text x="512" y="102" font-size="11" fill="#7a8899" text-anchor="start" font-weight="normal">GPU 2</text>
<rect x="524" y="118" width="142" height="26" rx="4" fill="#9085e9" opacity="0.9"/>
<text x="595.0" y="135" font-size="10.5" fill="#0b0f19" text-anchor="middle" font-weight="bold">batch shard 2</text>
<line x1="595.0" y1="152" x2="595.0" y2="172" stroke="#00c8ff" stroke-width="4.800000000000001" opacity="0.22" stroke-linecap="round"/>
<line x1="595.0" y1="152" x2="595.0" y2="172" stroke="#00c8ff" stroke-width="1.6" marker-end="url(#arr)"/>
<rect x="524" y="176" width="142" height="46" rx="6" fill="none" stroke="#0099c4" stroke-width="1.6"/>
<text x="595.0" y="196" font-size="11" fill="#d0dce8" text-anchor="middle" font-weight="normal">model replica</text>
<text x="595.0" y="212" font-size="9.5" fill="#7a8899" text-anchor="middle" font-weight="normal">(identical &#952;)</text>
<line x1="595.0" y1="230" x2="595.0" y2="250" stroke="#00c8ff" stroke-width="4.800000000000001" opacity="0.22" stroke-linecap="round"/>
<line x1="595.0" y1="230" x2="595.0" y2="250" stroke="#00c8ff" stroke-width="1.6" marker-end="url(#arr)"/>
<rect x="524" y="254" width="142" height="30" rx="4" fill="#9085e9" opacity="0.85"/>
<text x="595.0" y="273" font-size="10.5" fill="#0b0f19" text-anchor="middle" font-weight="bold">local grad g2</text>
<text x="595.0" y="306" font-size="9" fill="#7a8899" text-anchor="middle" font-weight="normal">forward + backward</text>
<text x="595.0" y="320" font-size="9" fill="#7a8899" text-anchor="middle" font-weight="normal">(no communication)</text>
<line x1="595.0" y1="330" x2="595.0" y2="352" stroke="#00c8ff" stroke-width="4.800000000000001" opacity="0.22" stroke-linecap="round"/>
<line x1="595.0" y1="330" x2="595.0" y2="352" stroke="#00c8ff" stroke-width="1.6" marker-end="url(#arr)"/>
<rect x="730" y="80" width="190" height="320" rx="10" fill="#131c2e" stroke="rgba(0,200,255,0.35)" stroke-width="1.3"/>
<text x="742" y="102" font-size="11" fill="#7a8899" text-anchor="start" font-weight="normal">GPU 3</text>
<rect x="754" y="118" width="142" height="26" rx="4" fill="#199e70" opacity="0.9"/>
<text x="825.0" y="135" font-size="10.5" fill="#0b0f19" text-anchor="middle" font-weight="bold">batch shard 3</text>
<line x1="825.0" y1="152" x2="825.0" y2="172" stroke="#00c8ff" stroke-width="4.800000000000001" opacity="0.22" stroke-linecap="round"/>
<line x1="825.0" y1="152" x2="825.0" y2="172" stroke="#00c8ff" stroke-width="1.6" marker-end="url(#arr)"/>
<rect x="754" y="176" width="142" height="46" rx="6" fill="none" stroke="#0099c4" stroke-width="1.6"/>
<text x="825.0" y="196" font-size="11" fill="#d0dce8" text-anchor="middle" font-weight="normal">model replica</text>
<text x="825.0" y="212" font-size="9.5" fill="#7a8899" text-anchor="middle" font-weight="normal">(identical &#952;)</text>
<line x1="825.0" y1="230" x2="825.0" y2="250" stroke="#00c8ff" stroke-width="4.800000000000001" opacity="0.22" stroke-linecap="round"/>
<line x1="825.0" y1="230" x2="825.0" y2="250" stroke="#00c8ff" stroke-width="1.6" marker-end="url(#arr)"/>
<rect x="754" y="254" width="142" height="30" rx="4" fill="#9085e9" opacity="0.85"/>
<text x="825.0" y="273" font-size="10.5" fill="#0b0f19" text-anchor="middle" font-weight="bold">local grad g3</text>
<text x="825.0" y="306" font-size="9" fill="#7a8899" text-anchor="middle" font-weight="normal">forward + backward</text>
<text x="825.0" y="320" font-size="9" fill="#7a8899" text-anchor="middle" font-weight="normal">(no communication)</text>
<line x1="825.0" y1="330" x2="825.0" y2="352" stroke="#00c8ff" stroke-width="4.800000000000001" opacity="0.22" stroke-linecap="round"/>
<line x1="825.0" y1="330" x2="825.0" y2="352" stroke="#00c8ff" stroke-width="1.6" marker-end="url(#arr)"/>
<rect x="40" y="356" width="880" height="40" rx="8" fill="none" stroke="#00c8ff" stroke-width="2"/>
<text x="460.0" y="381" font-size="13" fill="#00c8ff" text-anchor="middle" font-weight="bold">all-reduce:  every GPU gets  g = (g0+g1+g2+g3) / N</text>
<text x="480.0" y="428" font-size="12" fill="#d0dce8" text-anchor="middle" font-weight="normal">then each replica applies the SAME update  &#952; &#8592; &#952; &#8722; &#951;&#183;g   &#8594;   replicas stay bit-identical, forever</text>
<text x="480.0" y="470" font-size="10.5" fill="#7a8899" text-anchor="middle" font-weight="normal">the invariant: DP never approximates anything &#8212; it computes exactly what one big-batch GPU would compute</text>
</svg>
